<?xml version="1.0" encoding="UTF-8"?>
<svg width="135px" height="135px" viewBox="0 0 135 135" version="1.1" xmlns="http://www.w3.org/2000/svg" xmlns:xlink="http://www.w3.org/1999/xlink">
    <title>Artboard</title>
    <g id="Artboard" stroke="none" stroke-width="1" fill="none" fill-rule="evenodd">
        <path d="M41.575,96 L41.575,91.842 L42.925,91.842 C44.425,91.842 45.622,91.485 46.516,90.771 C47.41,90.057 47.857,88.998 47.857,87.594 C47.857,86.25 47.401,85.236 46.489,84.552 C45.577,83.868 44.299,83.526 42.655,83.526 L42.655,83.526 L38.623,83.526 L38.623,96 L41.575,96 Z M42.673,89.718 L41.575,89.718 L41.575,85.632 L42.619,85.632 C44.083,85.632 44.815,86.286 44.815,87.594 C44.815,88.35 44.632,88.893 44.266,89.223 C43.9,89.553 43.369,89.718 42.673,89.718 L42.673,89.718 Z M52.213,96 L52.213,91.266 C52.381,90.486 52.612,89.901 52.906,89.511 C53.2,89.121 53.629,88.926 54.193,88.926 C54.409,88.926 54.697,88.968 55.057,89.052 L55.057,89.052 L55.507,86.298 C55.219,86.214 54.901,86.172 54.553,86.172 C54.001,86.172 53.506,86.361 53.068,86.739 C52.63,87.117 52.303,87.636 52.087,88.296 L52.087,88.296 L51.853,86.442 L49.369,86.442 L49.369,96 L52.213,96 Z M60.727,96.306 C61.687,96.306 62.518,96.096 63.22,95.676 C63.922,95.256 64.462,94.665 64.84,93.903 C65.218,93.141 65.407,92.25 65.407,91.23 C65.407,89.622 64.993,88.371 64.165,87.477 C63.337,86.583 62.191,86.136 60.727,86.136 C59.767,86.136 58.936,86.346 58.234,86.766 C57.532,87.186 56.992,87.777 56.614,88.539 C56.236,89.301 56.047,90.192 56.047,91.212 C56.047,92.82 56.464,94.071 57.298,94.965 C58.132,95.859 59.275,96.306 60.727,96.306 Z M60.727,94.218 C60.139,94.218 59.704,93.978 59.422,93.498 C59.14,93.018 58.999,92.256 58.999,91.212 C58.999,90.192 59.143,89.439 59.431,88.953 C59.719,88.467 60.151,88.224 60.727,88.224 C61.315,88.224 61.75,88.464 62.032,88.944 C62.314,89.424 62.455,90.186 62.455,91.23 C62.455,92.25 62.311,93.003 62.023,93.489 C61.735,93.975 61.303,94.218 60.727,94.218 Z M68.503,84.642 C68.995,84.642 69.4,84.489 69.718,84.183 C70.036,83.877 70.195,83.49 70.195,83.022 C70.195,82.554 70.036,82.167 69.718,81.861 C69.4,81.555 68.995,81.402 68.503,81.402 C68.011,81.402 67.609,81.555 67.297,81.861 C66.985,82.167 66.829,82.554 66.829,83.022 C66.829,83.49 66.985,83.877 67.297,84.183 C67.609,84.489 68.011,84.642 68.503,84.642 Z M66.091,99.978 C66.919,99.678 67.606,99.333 68.152,98.943 C68.698,98.553 69.13,98.034 69.448,97.386 C69.766,96.738 69.925,95.916 69.925,94.92 L69.925,94.92 L69.925,86.442 L67.081,86.442 L67.081,95.1 C67.081,95.664 67.006,96.117 66.856,96.459 C66.706,96.801 66.499,97.074 66.235,97.278 C65.971,97.482 65.605,97.692 65.137,97.908 L65.137,97.908 L66.091,99.978 Z M76.423,96.306 C77.791,96.306 79.033,95.862 80.149,94.974 L80.149,94.974 L78.979,93.39 C78.559,93.678 78.169,93.891 77.809,94.029 C77.449,94.167 77.077,94.236 76.693,94.236 C76.057,94.236 75.559,94.074 75.199,93.75 C74.839,93.426 74.611,92.862 74.515,92.058 L74.515,92.058 L80.437,92.058 C80.473,91.77 80.491,91.428 80.491,91.032 C80.491,89.496 80.101,88.296 79.321,87.432 C78.541,86.568 77.461,86.136 76.081,86.136 C75.145,86.136 74.341,86.361 73.669,86.811 C72.997,87.261 72.487,87.873 72.139,88.647 C71.791,89.421 71.617,90.294 71.617,91.266 C71.617,92.802 72.031,94.026 72.859,94.938 C73.687,95.85 74.875,96.306 76.423,96.306 Z M77.701,90.348 L74.515,90.348 C74.575,89.52 74.74,88.926 75.01,88.566 C75.28,88.206 75.661,88.026 76.153,88.026 C77.161,88.026 77.677,88.758 77.701,90.222 L77.701,90.222 L77.701,90.348 Z M86.287,96.306 C87.487,96.306 88.561,95.928 89.509,95.172 L89.509,95.172 L88.267,93.408 C87.895,93.636 87.577,93.801 87.313,93.903 C87.049,94.005 86.755,94.056 86.431,94.056 C85.819,94.056 85.351,93.846 85.027,93.426 C84.703,93.006 84.541,92.292 84.541,91.284 C84.541,90.24 84.703,89.484 85.027,89.016 C85.351,88.548 85.831,88.314 86.467,88.314 C87.079,88.314 87.685,88.542 88.285,88.998 L88.285,88.998 L89.509,87.306 C89.041,86.91 88.543,86.616 88.015,86.424 C87.487,86.232 86.893,86.136 86.233,86.136 C85.297,86.136 84.475,86.355 83.767,86.793 C83.059,87.231 82.513,87.84 82.129,88.62 C81.745,89.4 81.553,90.294 81.553,91.302 C81.553,92.31 81.745,93.189 82.129,93.939 C82.513,94.689 83.059,95.271 83.767,95.685 C84.475,96.099 85.315,96.306 86.287,96.306 Z M94.117,96.306 C94.573,96.306 95.032,96.24 95.494,96.108 C95.956,95.976 96.361,95.79 96.709,95.55 L96.709,95.55 L95.755,93.75 C95.395,93.954 95.053,94.056 94.729,94.056 C94.417,94.056 94.189,93.96 94.045,93.768 C93.901,93.576 93.829,93.258 93.829,92.814 L93.829,92.814 L93.829,88.422 L95.719,88.422 L96.025,86.442 L93.829,86.442 L93.829,84.048 L90.985,84.372 L90.985,86.442 L89.635,86.442 L89.635,88.422 L90.985,88.422 L90.985,92.85 C90.985,95.142 92.029,96.294 94.117,96.306 Z M28.075,116 L28.075,113.876 L23.377,113.876 L23.377,110.69 L27.211,110.69 L27.211,108.62 L23.377,108.62 L23.377,105.632 L27.769,105.632 L28.075,103.526 L20.425,103.526 L20.425,116 L28.075,116 Z M32.683,116 L32.683,109.466 C32.899,109.058 33.124,108.749 33.358,108.539 C33.592,108.329 33.853,108.224 34.141,108.224 C34.681,108.224 34.951,108.65 34.951,109.502 L34.951,109.502 L34.951,116 L37.795,116 L37.795,109.466 C38.011,109.046 38.233,108.734 38.461,108.53 C38.689,108.326 38.953,108.224 39.253,108.224 C39.793,108.224 40.063,108.65 40.063,109.502 L40.063,109.502 L40.063,116 L42.907,116 L42.907,109.016 C42.907,108.116 42.679,107.411 42.223,106.901 C41.767,106.391 41.161,106.136 40.405,106.136 C39.805,106.136 39.274,106.259 38.812,106.505 C38.35,106.751 37.927,107.132 37.543,107.648 C37.363,107.168 37.078,106.796 36.688,106.532 C36.298,106.268 35.833,106.136 35.293,106.136 C34.717,106.136 34.204,106.253 33.754,106.487 C33.304,106.721 32.893,107.078 32.521,107.558 L32.521,107.558 L32.323,106.442 L29.839,106.442 L29.839,116 L32.683,116 Z M45.049,119.996 L47.893,119.69 L47.893,115.316 C48.481,115.976 49.255,116.306 50.215,116.306 C50.983,116.306 51.655,116.087 52.231,115.649 C52.807,115.211 53.248,114.605 53.554,113.831 C53.86,113.057 54.013,112.178 54.013,111.194 C54.013,109.598 53.719,108.356 53.131,107.468 C52.543,106.58 51.649,106.136 50.449,106.136 C49.945,106.136 49.453,106.247 48.973,106.469 C48.493,106.691 48.067,107.036 47.695,107.504 L47.695,107.504 L47.551,106.442 L45.049,106.442 L45.049,119.996 Z M49.351,114.218 C48.763,114.218 48.277,113.936 47.893,113.372 L47.893,113.372 L47.893,109.34 C48.109,108.98 48.358,108.704 48.64,108.512 C48.922,108.32 49.225,108.224 49.549,108.224 C50.053,108.224 50.431,108.443 50.683,108.881 C50.935,109.319 51.061,110.102 51.061,111.23 C51.061,113.222 50.491,114.218 49.351,114.218 Z M57.199,104.642 C57.691,104.642 58.096,104.489 58.414,104.183 C58.732,103.877 58.891,103.49 58.891,103.022 C58.891,102.554 58.732,102.167 58.414,101.861 C58.096,101.555 57.691,101.402 57.199,101.402 C56.707,101.402 56.305,101.555 55.993,101.861 C55.681,102.167 55.525,102.554 55.525,103.022 C55.525,103.49 55.681,103.877 55.993,104.183 C56.305,104.489 56.707,104.642 57.199,104.642 Z M58.639,116 L58.639,106.442 L55.795,106.442 L55.795,116 L58.639,116 Z M63.715,116 L63.715,111.266 C63.883,110.486 64.114,109.901 64.408,109.511 C64.702,109.121 65.131,108.926 65.695,108.926 C65.911,108.926 66.199,108.968 66.559,109.052 L66.559,109.052 L67.009,106.298 C66.721,106.214 66.403,106.172 66.055,106.172 C65.503,106.172 65.008,106.361 64.57,106.739 C64.132,107.117 63.805,107.636 63.589,108.296 L63.589,108.296 L63.355,106.442 L60.871,106.442 L60.871,116 L63.715,116 Z M72.355,116.306 C73.723,116.306 74.965,115.862 76.081,114.974 L76.081,114.974 L74.911,113.39 C74.491,113.678 74.101,113.891 73.741,114.029 C73.381,114.167 73.009,114.236 72.625,114.236 C71.989,114.236 71.491,114.074 71.131,113.75 C70.771,113.426 70.543,112.862 70.447,112.058 L70.447,112.058 L76.369,112.058 C76.405,111.77 76.423,111.428 76.423,111.032 C76.423,109.496 76.033,108.296 75.253,107.432 C74.473,106.568 73.393,106.136 72.013,106.136 C71.077,106.136 70.273,106.361 69.601,106.811 C68.929,107.261 68.419,107.873 68.071,108.647 C67.723,109.421 67.549,110.294 67.549,111.266 C67.549,112.802 67.963,114.026 68.791,114.938 C69.619,115.85 70.807,116.306 72.355,116.306 Z M73.633,110.348 L70.447,110.348 C70.507,109.52 70.672,108.926 70.942,108.566 C71.212,108.206 71.593,108.026 72.085,108.026 C73.093,108.026 73.609,108.758 73.633,110.222 L73.633,110.222 L73.633,110.348 Z M86.647,116 L87.907,108.98 L89.185,116 L92.587,116 L94.567,106.442 L91.849,106.442 L90.697,113.876 L89.383,106.442 L86.611,106.442 L85.117,113.876 L84.127,106.442 L81.247,106.442 L83.281,116 L86.647,116 Z M97.177,104.642 C97.669,104.642 98.074,104.489 98.392,104.183 C98.71,103.877 98.869,103.49 98.869,103.022 C98.869,102.554 98.71,102.167 98.392,101.861 C98.074,101.555 97.669,101.402 97.177,101.402 C96.685,101.402 96.283,101.555 95.971,101.861 C95.659,102.167 95.503,102.554 95.503,103.022 C95.503,103.49 95.659,103.877 95.971,104.183 C96.283,104.489 96.685,104.642 97.177,104.642 Z M98.617,116 L98.617,106.442 L95.773,106.442 L95.773,116 L98.617,116 Z M103.693,116 L103.693,102.338 L100.849,102.644 L100.849,116 L103.693,116 Z M109.831,116 L106.699,110.636 L109.597,106.442 L106.699,106.442 L103.783,110.78 L106.627,116 L109.831,116 Z M112.189,104.642 C112.681,104.642 113.086,104.489 113.404,104.183 C113.722,103.877 113.881,103.49 113.881,103.022 C113.881,102.554 113.722,102.167 113.404,101.861 C113.086,101.555 112.681,101.402 112.189,101.402 C111.697,101.402 111.295,101.555 110.983,101.861 C110.671,102.167 110.515,102.554 110.515,103.022 C110.515,103.49 110.671,103.877 110.983,104.183 C111.295,104.489 111.697,104.642 112.189,104.642 Z M113.629,116 L113.629,106.442 L110.785,106.442 L110.785,116 L113.629,116 Z" id="ProjectEmpirewiki" fill="#000000" fill-rule="nonzero"></path>
        <circle id="Oval" stroke="#000000" stroke-width="2" cx="67.5" cy="42.5" r="10.5"></circle>
        <circle id="Oval" stroke="#000000" stroke-width="2" cx="96" cy="63" r="8"></circle>
        <circle id="Oval" stroke="#000000" stroke-width="2" cx="91" cy="32" r="8"></circle>
        <path d="M39.0025307,30.4080096 C43.4208087,30.4080096 47.0025307,26.8262876 47.0025307,22.4080096 C47.0025307,17.9897316 43.4208087,14.4080096 39.0025307,14.4080096 C34.5842527,14.4080096 31.0025307,17.9897316 31.0025307,22.4080096 C31.0025307,26.8262876 34.5842527,30.4080096 39.0025307,30.4080096 Z" id="Oval" stroke="#000000" stroke-width="2"></path>
        <circle id="Oval" stroke="#000000" stroke-width="2" cx="45" cy="57" r="8"></circle>
        <line x1="46.2580408" y1="27.7057856" x2="58.4642313" y2="36.441259" id="Line" stroke="#000000" stroke-width="2" stroke-linecap="square"></line>
        <line x1="52" y1="53" x2="58" y2="49" id="Line" stroke="#000000" stroke-width="2" stroke-linecap="square"></line>
        <line x1="76.6350226" y1="48.963637" x2="89" y2="58" id="Line" stroke="#000000" stroke-width="2" stroke-linecap="square"></line>
        <line x1="78" y1="38.2342164" x2="83.5603013" y2="35.3369107" id="Line" stroke="#000000" stroke-width="2" stroke-linecap="square"></line>
    </g>
</svg>