<?xml version="1.0" encoding="UTF-8"?>
<svg width="135px" height="135px" viewBox="0 0 135 135" version="1.1" xmlns="http://www.w3.org/2000/svg" xmlns:xlink="http://www.w3.org/1999/xlink">
    <title>Artboard Copy 2</title>
    <g id="Artboard-Copy-2" stroke="none" stroke-width="1" fill="none" fill-rule="evenodd">
        <path d="M17.88,98 L17.88,94.304 L19.08,94.304 C20.4133333,94.304 21.4773333,93.9866667 22.272,93.352 C23.0666667,92.7173333 23.464,91.776 23.464,90.528 C23.464,89.3333333 23.0586667,88.432 22.248,87.824 C21.4373333,87.216 20.3013333,86.912 18.84,86.912 L18.84,86.912 L15.256,86.912 L15.256,98 L17.88,98 Z M18.856,92.416 L17.88,92.416 L17.88,88.784 L18.808,88.784 C20.1093333,88.784 20.76,89.3653333 20.76,90.528 C20.76,91.2 20.5973333,91.6826667 20.272,91.976 C19.9466667,92.2693333 19.4746667,92.416 18.856,92.416 L18.856,92.416 Z M27.336,98 L27.336,93.792 C27.4853333,93.0986667 27.6906667,92.5786667 27.952,92.232 C28.2133333,91.8853333 28.5946667,91.712 29.096,91.712 C29.288,91.712 29.544,91.7493333 29.864,91.824 L29.864,91.824 L30.264,89.376 C30.008,89.3013333 29.7253333,89.264 29.416,89.264 C28.9253333,89.264 28.4853333,89.432 28.096,89.768 C27.7066667,90.104 27.416,90.5653333 27.224,91.152 L27.224,91.152 L27.016,89.504 L24.808,89.504 L24.808,98 L27.336,98 Z M34.904,98.272 C35.7573333,98.272 36.496,98.0853333 37.12,97.712 C37.744,97.3386667 38.224,96.8133333 38.56,96.136 C38.896,95.4586667 39.064,94.6666667 39.064,93.76 C39.064,92.3306667 38.696,91.2186667 37.96,90.424 C37.224,89.6293333 36.2053333,89.232 34.904,89.232 C34.0506667,89.232 33.312,89.4186667 32.688,89.792 C32.064,90.1653333 31.584,90.6906667 31.248,91.368 C30.912,92.0453333 30.744,92.8373333 30.744,93.744 C30.744,95.1733333 31.1146667,96.2853333 31.856,97.08 C32.5973333,97.8746667 33.6133333,98.272 34.904,98.272 Z M34.904,96.416 C34.3813333,96.416 33.9946667,96.2026667 33.744,95.776 C33.4933333,95.3493333 33.368,94.672 33.368,93.744 C33.368,92.8373333 33.496,92.168 33.752,91.736 C34.008,91.304 34.392,91.088 34.904,91.088 C35.4266667,91.088 35.8133333,91.3013333 36.064,91.728 C36.3146667,92.1546667 36.44,92.832 36.44,93.76 C36.44,94.6666667 36.312,95.336 36.056,95.768 C35.8,96.2 35.416,96.416 34.904,96.416 Z M41.816,87.904 C42.2533333,87.904 42.6133333,87.768 42.896,87.496 C43.1786667,87.224 43.32,86.88 43.32,86.464 C43.32,86.048 43.1786667,85.704 42.896,85.432 C42.6133333,85.16 42.2533333,85.024 41.816,85.024 C41.3786667,85.024 41.0213333,85.16 40.744,85.432 C40.4666667,85.704 40.328,86.048 40.328,86.464 C40.328,86.88 40.4666667,87.224 40.744,87.496 C41.0213333,87.768 41.3786667,87.904 41.816,87.904 Z M39.672,101.536 C40.408,101.269333 41.0186667,100.962667 41.504,100.616 C41.9893333,100.269333 42.3733333,99.808 42.656,99.232 C42.9386667,98.656 43.08,97.9253333 43.08,97.04 L43.08,97.04 L43.08,89.504 L40.552,89.504 L40.552,97.2 C40.552,97.7013333 40.4853333,98.104 40.352,98.408 C40.2186667,98.712 40.0346667,98.9546667 39.8,99.136 C39.5653333,99.3173333 39.24,99.504 38.824,99.696 L38.824,99.696 L39.672,101.536 Z M48.856,98.272 C50.072,98.272 51.176,97.8773333 52.168,97.088 L52.168,97.088 L51.128,95.68 C50.7546667,95.936 50.408,96.1253333 50.088,96.248 C49.768,96.3706667 49.4373333,96.432 49.096,96.432 C48.5306667,96.432 48.088,96.288 47.768,96 C47.448,95.712 47.2453333,95.2106667 47.16,94.496 L47.16,94.496 L52.424,94.496 C52.456,94.24 52.472,93.936 52.472,93.584 C52.472,92.2186667 52.1253333,91.152 51.432,90.384 C50.7386667,89.616 49.7786667,89.232 48.552,89.232 C47.72,89.232 47.0053333,89.432 46.408,89.832 C45.8106667,90.232 45.3573333,90.776 45.048,91.464 C44.7386667,92.152 44.584,92.928 44.584,93.792 C44.584,95.1573333 44.952,96.2453333 45.688,97.056 C46.424,97.8666667 47.48,98.272 48.856,98.272 Z M49.992,92.976 L47.16,92.976 C47.2133333,92.24 47.36,91.712 47.6,91.392 C47.84,91.072 48.1786667,90.912 48.616,90.912 C49.512,90.912 49.9706667,91.5626667 49.992,92.864 L49.992,92.864 L49.992,92.976 Z M57.624,98.272 C58.6906667,98.272 59.6453333,97.936 60.488,97.264 L60.488,97.264 L59.384,95.696 C59.0533333,95.8986667 58.7706667,96.0453333 58.536,96.136 C58.3013333,96.2266667 58.04,96.272 57.752,96.272 C57.208,96.272 56.792,96.0853333 56.504,95.712 C56.216,95.3386667 56.072,94.704 56.072,93.808 C56.072,92.88 56.216,92.208 56.504,91.792 C56.792,91.376 57.2186667,91.168 57.784,91.168 C58.328,91.168 58.8666667,91.3706667 59.4,91.776 L59.4,91.776 L60.488,90.272 C60.072,89.92 59.6293333,89.6586667 59.16,89.488 C58.6906667,89.3173333 58.1626667,89.232 57.576,89.232 C56.744,89.232 56.0133333,89.4266667 55.384,89.816 C54.7546667,90.2053333 54.2693333,90.7466667 53.928,91.44 C53.5866667,92.1333333 53.416,92.928 53.416,93.824 C53.416,94.72 53.5866667,95.5013333 53.928,96.168 C54.2693333,96.8346667 54.7546667,97.352 55.384,97.72 C56.0133333,98.088 56.76,98.272 57.624,98.272 Z M64.584,98.272 C64.9893333,98.272 65.3973333,98.2133333 65.808,98.096 C66.2186667,97.9786667 66.5786667,97.8133333 66.888,97.6 L66.888,97.6 L66.04,96 C65.72,96.1813333 65.416,96.272 65.128,96.272 C64.8506667,96.272 64.648,96.1866667 64.52,96.016 C64.392,95.8453333 64.328,95.5626667 64.328,95.168 L64.328,95.168 L64.328,91.264 L66.008,91.264 L66.28,89.504 L64.328,89.504 L64.328,87.376 L61.8,87.664 L61.8,89.504 L60.6,89.504 L60.6,91.264 L61.8,91.264 L61.8,95.2 C61.8,97.2373333 62.728,98.2613333 64.584,98.272 Z M78.376,98 L78.376,96.112 L74.2,96.112 L74.2,93.28 L77.608,93.28 L77.608,91.44 L74.2,91.44 L74.2,88.784 L78.104,88.784 L78.376,86.912 L71.576,86.912 L71.576,98 L78.376,98 Z M82.472,98 L82.472,92.192 C82.664,91.8293333 82.864,91.5546667 83.072,91.368 C83.28,91.1813333 83.512,91.088 83.768,91.088 C84.248,91.088 84.488,91.4666667 84.488,92.224 L84.488,92.224 L84.488,98 L87.016,98 L87.016,92.192 C87.208,91.8186667 87.4053333,91.5413333 87.608,91.36 C87.8106667,91.1786667 88.0453333,91.088 88.312,91.088 C88.792,91.088 89.032,91.4666667 89.032,92.224 L89.032,92.224 L89.032,98 L91.56,98 L91.56,91.792 C91.56,90.992 91.3573333,90.3653333 90.952,89.912 C90.5466667,89.4586667 90.008,89.232 89.336,89.232 C88.8026667,89.232 88.3306667,89.3413333 87.92,89.56 C87.5093333,89.7786667 87.1333333,90.1173333 86.792,90.576 C86.632,90.1493333 86.3786667,89.8186667 86.032,89.584 C85.6853333,89.3493333 85.272,89.232 84.792,89.232 C84.28,89.232 83.824,89.336 83.424,89.544 C83.024,89.752 82.6586667,90.0693333 82.328,90.496 L82.328,90.496 L82.152,89.504 L79.944,89.504 L79.944,98 L82.472,98 Z M93.464,101.552 L95.992,101.28 L95.992,97.392 C96.5146667,97.9786667 97.2026667,98.272 98.056,98.272 C98.7386667,98.272 99.336,98.0773333 99.848,97.688 C100.36,97.2986667 100.752,96.76 101.024,96.072 C101.296,95.384 101.432,94.6026667 101.432,93.728 C101.432,92.3093333 101.170667,91.2053333 100.648,90.416 C100.125333,89.6266667 99.3306667,89.232 98.264,89.232 C97.816,89.232 97.3786667,89.3306667 96.952,89.528 C96.5253333,89.7253333 96.1466667,90.032 95.816,90.448 L95.816,90.448 L95.688,89.504 L93.464,89.504 L93.464,101.552 Z M97.288,96.416 C96.7653333,96.416 96.3333333,96.1653333 95.992,95.664 L95.992,95.664 L95.992,92.08 C96.184,91.76 96.4053333,91.5146667 96.656,91.344 C96.9066667,91.1733333 97.176,91.088 97.464,91.088 C97.912,91.088 98.248,91.2826667 98.472,91.672 C98.696,92.0613333 98.808,92.7573333 98.808,93.76 C98.808,95.5306667 98.3013333,96.416 97.288,96.416 Z M104.264,87.904 C104.701333,87.904 105.061333,87.768 105.344,87.496 C105.626667,87.224 105.768,86.88 105.768,86.464 C105.768,86.048 105.626667,85.704 105.344,85.432 C105.061333,85.16 104.701333,85.024 104.264,85.024 C103.826667,85.024 103.469333,85.16 103.192,85.432 C102.914667,85.704 102.776,86.048 102.776,86.464 C102.776,86.88 102.914667,87.224 103.192,87.496 C103.469333,87.768 103.826667,87.904 104.264,87.904 Z M105.544,98 L105.544,89.504 L103.016,89.504 L103.016,98 L105.544,98 Z M110.056,98 L110.056,93.792 C110.205333,93.0986667 110.410667,92.5786667 110.672,92.232 C110.933333,91.8853333 111.314667,91.712 111.816,91.712 C112.008,91.712 112.264,91.7493333 112.584,91.824 L112.584,91.824 L112.984,89.376 C112.728,89.3013333 112.445333,89.264 112.136,89.264 C111.645333,89.264 111.205333,89.432 110.816,89.768 C110.426667,90.104 110.136,90.5653333 109.944,91.152 L109.944,91.152 L109.736,89.504 L107.528,89.504 L107.528,98 L110.056,98 Z M117.736,98.272 C118.952,98.272 120.056,97.8773333 121.048,97.088 L121.048,97.088 L120.008,95.68 C119.634667,95.936 119.288,96.1253333 118.968,96.248 C118.648,96.3706667 118.317333,96.432 117.976,96.432 C117.410667,96.432 116.968,96.288 116.648,96 C116.328,95.712 116.125333,95.2106667 116.04,94.496 L116.04,94.496 L121.304,94.496 C121.336,94.24 121.352,93.936 121.352,93.584 C121.352,92.2186667 121.005333,91.152 120.312,90.384 C119.618667,89.616 118.658667,89.232 117.432,89.232 C116.6,89.232 115.885333,89.432 115.288,89.832 C114.690667,90.232 114.237333,90.776 113.928,91.464 C113.618667,92.152 113.464,92.928 113.464,93.792 C113.464,95.1573333 113.832,96.2453333 114.568,97.056 C115.304,97.8666667 116.36,98.272 117.736,98.272 Z M118.872,92.976 L116.04,92.976 C116.093333,92.24 116.24,91.712 116.48,91.392 C116.72,91.072 117.058667,90.912 117.496,90.912 C118.392,90.912 118.850667,91.5626667 118.872,92.864 L118.872,92.864 L118.872,92.976 Z" id="ProjectEmpire" fill="#000000" fill-rule="nonzero"></path>
        <path d="M57.944,118 L59.064,111.76 L60.2,118 L63.224,118 L64.984,109.504 L62.568,109.504 L61.544,116.112 L60.376,109.504 L57.912,109.504 L56.584,116.112 L55.704,109.504 L53.144,109.504 L54.952,118 L57.944,118 Z M67.304,107.904 C67.7413333,107.904 68.1013333,107.768 68.384,107.496 C68.6666667,107.224 68.808,106.88 68.808,106.464 C68.808,106.048 68.6666667,105.704 68.384,105.432 C68.1013333,105.16 67.7413333,105.024 67.304,105.024 C66.8666667,105.024 66.5093333,105.16 66.232,105.432 C65.9546667,105.704 65.816,106.048 65.816,106.464 C65.816,106.88 65.9546667,107.224 66.232,107.496 C66.5093333,107.768 66.8666667,107.904 67.304,107.904 Z M68.584,118 L68.584,109.504 L66.056,109.504 L66.056,118 L68.584,118 Z M73.096,118 L73.096,105.856 L70.568,106.128 L70.568,118 L73.096,118 Z M78.552,118 L75.768,113.232 L78.344,109.504 L75.768,109.504 L73.176,113.36 L75.704,118 L78.552,118 Z M80.648,107.904 C81.0853333,107.904 81.4453333,107.768 81.728,107.496 C82.0106667,107.224 82.152,106.88 82.152,106.464 C82.152,106.048 82.0106667,105.704 81.728,105.432 C81.4453333,105.16 81.0853333,105.024 80.648,105.024 C80.2106667,105.024 79.8533333,105.16 79.576,105.432 C79.2986667,105.704 79.16,106.048 79.16,106.464 C79.16,106.88 79.2986667,107.224 79.576,107.496 C79.8533333,107.768 80.2106667,107.904 80.648,107.904 Z M81.928,118 L81.928,109.504 L79.4,109.504 L79.4,118 L81.928,118 Z" id="wiki" fill="#000000" fill-rule="nonzero"></path>
        <circle id="Oval" stroke="#000000" stroke-width="2" cx="67.5" cy="43.5" r="10.5"></circle>
        <circle id="Oval" stroke="#000000" stroke-width="2" cx="96" cy="64" r="8"></circle>
        <circle id="Oval" stroke="#000000" stroke-width="2" cx="91" cy="33" r="8"></circle>
        <path d="M39.0025307,31.4080096 C43.4208087,31.4080096 47.0025307,27.8262876 47.0025307,23.4080096 C47.0025307,18.9897316 43.4208087,15.4080096 39.0025307,15.4080096 C34.5842527,15.4080096 31.0025307,18.9897316 31.0025307,23.4080096 C31.0025307,27.8262876 34.5842527,31.4080096 39.0025307,31.4080096 Z" id="Oval" stroke="#000000" stroke-width="2"></path>
        <circle id="Oval" stroke="#000000" stroke-width="2" cx="45" cy="58" r="8"></circle>
        <line x1="46.2580408" y1="28.7057856" x2="58.4642313" y2="37.441259" id="Line" stroke="#000000" stroke-width="2" stroke-linecap="square"></line>
        <line x1="52" y1="54" x2="58" y2="50" id="Line" stroke="#000000" stroke-width="2" stroke-linecap="square"></line>
        <line x1="76.6350226" y1="49.963637" x2="89" y2="59" id="Line" stroke="#000000" stroke-width="2" stroke-linecap="square"></line>
        <line x1="78" y1="39.2342164" x2="83.5603013" y2="36.3369107" id="Line" stroke="#000000" stroke-width="2" stroke-linecap="square"></line>
    </g>
</svg>
